<?xml version="1.0" encoding="UTF-8" standalone="no"?>
<svg
   version="1.1"
   id="svg24"
   viewBox="0 0 927.2735 120.87398"
   xmlns="http://www.w3.org/2000/svg"
   xmlns:svg="http://www.w3.org/2000/svg">
  <defs
     id="defs4">
    <style
       id="style2">.a{fill:#380354;}</style>
  </defs>
  <path
     class="a"
     d="M 234.64661,72.67518 C 231.92698,76.60374 229.96267,79.62561 224.37203,79.62561 H 221.50154 C 215.91114,79.62561 213.94688,76.60374 211.22754,72.67518 L 192.94516,45.62972 V 105.16013 C 192.94516,110.59992 189.77221,113.92413 183.87927,113.92413 H 180.8577 C 174.8137,113.92413 171.79211,110.59997 171.79211,105.16013 V 15.56246 C 171.79211,9.97206 174.81368,6.79905 180.8577,6.79905 H 184.63488 C 189.77221,6.79905 192.03846,8.30998 194.75809,12.2386 L 222.861,53.48668 251.11578,12.2386 C 253.68426,8.30998 255.95051,6.79905 261.23893,6.79905 H 265.0164 C 271.05989,6.79905 274.08146,9.97205 274.08146,15.56246 V 105.16013 C 274.08146,110.59992 271.05989,113.92413 265.0164,113.92413 H 261.994 C 255.95056,113.92413 252.9287,110.59997 252.9287,105.16013 V 45.62972 Z"
     id="path6" />
  <path
     class="a"
     d="M 554.66,113.92408 C 548.76736,113.92408 545.59494,110.59992 545.59494,105.16008 V 15.56246 C 545.59494,9.67012 549.06966,6.79905 554.66,6.79905 H 604.219 C 609.80994,6.79905 613.284,9.67012 613.284,15.56246 V 17.9801 C 613.284,23.87274 609.80994,26.74375 604.219,26.74375 H 566.74808 V 50.6159 H 597.87236 C 603.46336,50.6159 606.93854,53.48668 606.93854,59.37956 V 61.9478 C 606.93854,67.6893 603.46335,70.56002 597.87236,70.56002 H 566.74808 V 93.98 H 604.82343 C 610.56375,93.98 613.88843,97.00127 613.88843,102.74276 V 105.31125 C 613.88843,111.05274 610.56374,113.92411 604.82343,113.92411 Z"
     id="path8" />
  <path
     class="a"
     d="M 300.67377,60.43711 C 300.67377,30.06732 325.60353,5.28841 356.12447,5.28841 386.64541,5.28841 411.57539,30.06732 411.57539,60.43711 411.57539,90.80636 386.64539,115.43411 356.12447,115.43411 325.60355,115.43411 300.67377,90.80634 300.67377,60.43711 Z M 322.27996,60.43711 C 322.27996,79.62561 337.38934,95.18778 356.12447,95.18778 374.70962,95.18778 389.96956,79.62561 389.96956,60.43711 389.96956,41.39916 374.70962,25.68561 356.12447,25.68561 337.38934,25.68561 322.27996,41.39916 322.27996,60.43711 Z"
     id="path10" />
  <path
     class="a"
     d="M 459.3214,105.16013 C 459.3214,110.59992 456.29901,113.92413 450.4064,113.92413 H 447.2334 C 441.34081,113.92413 438.1678,110.59997 438.1678,105.16013 V 15.56246 C 438.1678,9.97206 441.3408,6.79905 447.2334,6.79905 H 481.22957 A 34.27453,34.27453 0 0 1 515.37574,40.795 C 515.37574,51.82461 508.87917,61.79667 499.66301,67.68931 A 34.41252,34.41252 0 0 1 510.38986,84.61209 L 515.37574,101.83657 A 19.64519,19.64519 0 0 1 516.43358,107.12475 C 516.43358,111.05275 512.80778,113.92409 508.12301,113.92409 H 503.59101 C 498.90683,113.92409 496.1872,111.65725 494.9782,107.42639 L 489.99232,89.74912 C 487.87775,82.34584 481.38064,74.63974 470.65267,74.63974 H 459.3214 Z M 459.3214,26.74375 V 54.69532 H 480.17169 A 13.51742,13.51742 0 0 0 493.76926,40.795 13.836,13.836 0 0 0 480.17169,26.74376 Z"
     id="path12" />
  <path
     class="a"
     d="M 34.147,60.43711 A 26.9553,26.9553 0 0 0 61.19243,87.18 C 68.29377,87.18 73.43073,84.46037 79.47443,80.079 82.64743,77.81216 85.6696,75.24426 91.10857,75.24426 A 17.53116,17.53116 0 0 1 101.83627,78.87 15.12816,15.12816 0 0 1 107.88,91.41089 17.6124,17.6124 0 0 1 102.89382,103.64949 C 94.88608,112.71509 78.41691,120.87398 59.98373,120.87398 25.98784,120.874 0,92.771 0,60.43711 0,28.10322 26.13893,0 59.98373,0 78.26582,0 94.28161,8.15919 102.28935,17.22448 A 17.6127,17.6127 0 0 1 107.27553,29.46309 15.32687,15.32687 0 0 1 101.2318,42.00369 17.35592,17.35592 0 0 1 90.50413,45.62969 C 85.06513,45.62969 82.0433,43.06151 78.87029,40.79496 73.43073,36.86634 68.44485,33.69332 60.89018,33.69332 A 26.89069,26.89069 0 0 0 34.147,60.43711 Z"
     id="path14" />
  <path
     class="a"
     d="M 917.22372,114.0924 C 914.69084,114.0924 912.7299,113.0197 910.483,109.55406 L 886.33901,72.917255 862.35843,109.55406 C 860.27494,112.89593 858.15059,114.0924 855.61772,114.0924 H 850.5111 C 847.81482,114.0924 846.01731,111.82323 846.01731,110.0079 846.01731,109.38903 846.18073,108.19256 847.20204,106.54225 L 878.08675,60.498697 847.36546,14.331378 C 846.30327,12.681047 846.18073,11.44334 846.18073,10.865744 846.18073,9.0503868 847.97824,6.7812298 850.67452,6.7812298 H 856.2305 C 858.92679,6.7812298 860.72432,7.9777125 862.97122,11.31955 L 886.9518,47.667564 910.76897,11.31955 C 913.01587,7.9777125 914.8134,6.7812298 917.50967,6.7812298 H 922.61628 C 925.31261,6.7812298 927.11012,9.0503868 927.11012,10.865744 927.11012,11.484576 926.94671,12.681047 925.92535,14.331378 L 895.20406,60.209887 926.0888,106.54225 C 927.15096,108.19256 927.27349,109.43029 927.27349,110.0079 927.27349,111.82323 925.47598,114.0924 922.7797,114.0924 Z"
     id="path2693" />
  <path
     class="a"
     d="M 768.14252,114.09241 C 764.37273,114.09241 762.44686,111.98826 762.44686,108.35759 V 32.030915 L 735.81246,71.67953 C 733.39487,75.145169 732.20658,77.414339 728.14995,77.414339 H 725.1587 C 721.10208,77.414339 719.74987,75.145169 717.49619,71.67953 L 690.8618,32.030915 V 108.35759 C 690.8618,111.98826 688.89495,114.09241 685.16613,114.09241 H 681.84708 C 678.07729,114.09241 676.15142,111.98826 676.15142,108.35759 V 12.516039 C 676.15142,8.8853728 678.11826,6.7812298 681.84708,6.7812298 H 685.9037 C 689.67349,6.7812298 691.31253,7.8539288 693.4023,11.030765 L 726.63384,60.251154 759.86537,11.030765 C 761.95514,7.8539288 763.63516,6.7812298 767.36398,6.7812298 H 771.4206 C 775.19039,6.7812298 777.11626,8.8853728 777.11626,12.516039 V 108.35759 C 777.11626,111.98826 775.14941,114.09241 771.4206,114.09241 Z"
     id="path2689" />
  <path
     class="a"
     d="M 821.07834,108.35759 C 821.07834,111.98826 819.11902,114.09241 815.4045,114.09241 H 812.09815 C 808.3428,114.09241 806.42431,111.98826 806.42431,108.35759 V 12.516039 C 806.42431,8.8853728 808.38362,6.7812298 812.09815,6.7812298 H 815.4045 C 819.15984,6.7812298 821.07834,8.8853728 821.07834,12.516039 Z"
     id="path3002" />
</svg>
