<?xml version="1.0" encoding="utf-8"?>
<!-- Generator: Adobe Illustrator 22.0.1, SVG Export Plug-In . SVG Version: 6.00 Build 0)  -->
<svg version="1.1" id="Layer_1" xmlns="http://www.w3.org/2000/svg" xmlns:xlink="http://www.w3.org/1999/xlink" x="0px" y="0px"
	 viewBox="0 0 38 31" style="enable-background:new 0 0 38 31;" xml:space="preserve">
<style type="text/css">
	.st0{fill:#FFFFFF;}
</style>
<g>
	<polygon class="st0" points="32.3,12.2 32.3,6.4 32.2,6.4 25,6.4 24.8,6.4 24.8,12.2 19.5,12.2 19.5,19.8 24.8,19.8 24.8,25.6 
		25,25.6 32.2,25.6 32.3,25.6 32.3,19.8 38,19.8 38,12.2 	"/>
	<g>
		<path class="st0" d="M7.8,20.8H0c0.2,7.1,5.9,9.7,11.8,10.2v-6C8.8,24.5,7.8,22.9,7.8,20.8z"/>
		<path class="st0" d="M13.1,5.8c0.3,0,0.7,0,1,0.1c0.4,0,0.8,0.1,1.2,0.2c0.1,0,1.3,0.2,1.3,0.3c0-2,0-4,0-6
			c-1.9-0.2-3.8-0.4-5.6-0.2C9.1,0.3,7.2,0.8,5.6,1.8C4.2,2.7,2.9,3.9,2.1,5.5s-1.1,3.4-1,5.1c0.1,1.4,0.5,2.8,1.4,3.9
			c1.1,1.4,2.8,2.4,4.5,3c3.1,1.1,6.4,1.6,9.7,2.5c0-2.6,0-5,0-7.6c-2.8-0.4-4.1-0.5-6.1-1.2c-0.6-0.2-1.2-0.5-1.5-0.9
			C8.5,9.5,8.4,8.3,8.9,7.5c0.7-1.1,2-1.5,3.3-1.7C12.5,5.8,12.8,5.8,13.1,5.8z"/>
	</g>
</g>
</svg>
