<svg xmlns="http://www.w3.org/2000/svg" xmlns:xlink="http://www.w3.org/1999/xlink" x="0px" y="0px" viewBox="0 0 1920 572" style="enable-background:new 0 0 1920 572;" xml:space="preserve"><style type="text/css">	.st0{fill:#FFFFFF;}	.st1{fill:#42CFD9;}	.st2{fill:#522B61;}	.st3{fill:#FF2E4D;}	.st4{fill:#F2C714;}</style><g id="CASA_E_COZINHA_LOGO">	<g>		<g>			<path class="st0" d="M830,163.1c-10.2,40.2-46.1,71.5-93,71.5c-57.4,0-96.9-44.5-96.9-96.3c0-53.4,41.2-95.9,95.3-95.9     c45.5,0,84.1,28.7,94.6,72.9h-44.2c-7.6-19.1-25.1-32.6-48.8-32.6c-15.8-0.3-28,5.3-38.6,15.5c-9.2,9.9-14.8,24.4-14.8,40.2     c0,32.6,22.7,55.7,53.4,55.7c27,0,42.2-16.1,48.8-31H830z"></path>			<path class="st0" d="M1048.9,229h-43.2v-26c-11.5,21.1-35.6,31.6-61,31.6c-58,0-92-45.2-92-96.3c0-57,41.2-95.9,92-95.9     c33,0,53.1,17.5,61,32V48h43.2V229z M896,139.4c0,22.4,16.2,55,55,55c24.1,0,39.9-12.5,48.1-29c4.3-7.9,6.3-16.5,6.9-25.4     c0.3-8.6-1.3-17.5-4.9-25.4c-7.6-17.1-24.4-32-50.4-32C915.7,82.7,896,111,896,139V139.4z"></path>			<path class="st0" d="M1170.2,96.8c-0.3-9.6-5.3-19.4-22.1-19.4c-14.5,0-21.4,9.2-21.4,18.1c0.3,11.5,13.5,17.8,30.7,22.7     c29,7.9,60.3,16.5,60.7,55.4c0.7,37.2-30.7,61-68.6,61c-28,0-65.9-14.5-69.2-58.3h43.2c1.6,19.4,18.5,23.4,26.7,23.4     c13.5,0,25.1-8.9,24.7-21.1c0-15.5-13.5-19.8-46.8-31.3c-24.4-7.6-44.2-21.1-44.5-47.1c0-35.6,30-57.7,64.9-57.7     c24.4,0,60.7,10.9,64.3,54.4H1170.2z"></path>			<path class="st0" d="M1436.9,229h-43.2v-26c-11.5,21.1-35.6,31.6-61,31.6c-58,0-92-45.2-92-96.3c0-57,41.2-95.9,92-95.9     c33,0,53.1,17.5,61,32V48h43.2V229z M1284,139.4c0,22.4,16.2,55,55,55c24.1,0,39.9-12.5,48.1-29c4.3-7.9,6.3-16.5,6.9-25.4     c0.3-8.6-1.3-17.5-4.9-25.4c-7.6-17.1-24.4-32-50.4-32c-34.9,0-54.7,28.3-54.7,56.4V139.4z"></path>			<path class="st0" d="M1544.3,179.7c1.3,18.8,17.9,29.2,33.9,29c13.7,0,22.8-6.2,28.2-15.8h28.8c-5.5,13-13.9,22.8-23.7,29.4     c-9.8,6.8-21.3,10.2-33.5,10.2c-36,0-61.9-29.2-61.9-61.9c0-33.3,26-62.5,61.4-62.5c17.5,0,32.8,6.6,43.7,17.9     c14.3,14.7,19.6,33.1,17.3,53.5H1544.3z M1611.1,158.4c-1.1-11.1-12.8-26.7-33.3-26.4c-20.7,0-32,14.9-33.1,26.4H1611.1z"></path>		</g>		<g>			<path class="st0" d="M830,474.2c-10.2,40.2-46.1,71.5-93,71.5c-57.4,0-96.9-44.5-96.9-96.3c0-53.4,41.2-95.9,95.3-95.9     c45.5,0,84.1,28.7,94.6,72.9h-44.2c-7.6-19.1-25.1-32.6-48.8-32.6c-15.8-0.3-28,5.3-38.6,15.5c-9.2,9.9-14.8,24.4-14.8,40.2     c0,32.6,22.7,55.7,53.4,55.7c27,0,42.2-16.1,48.8-31H830z"></path>			<path class="st0" d="M852.8,449.1c0-46.1,34-95.3,96.9-95.3s96.9,49.1,96.9,95.6c0,46.8-34,95.9-96.9,95.9s-96.9-49.1-96.9-95.9     V449.1z M896,449.8c0,31.6,24.1,55,53.7,55s53.4-23.4,53.4-55.4c0-32-23.7-55.4-53.4-55.4S896,417.5,896,449.5V449.8z"></path>			<path class="st0" d="M1063.1,510.1l85-117.7h-83.4v-33.3h130.5v33.3l-80.8,114.4h82.1v33.3h-133.5V510.1z"></path>			<path class="st0" d="M1223.3,296.2h43.2v38.6h-43.2V296.2z M1223.3,359.1h43.2v181h-43.2V359.1z"></path>			<path class="st0" d="M1309,359.1h40.5c0,7.9,0,15.5-0.3,24.1c7.9-14.2,24.1-30,56.4-29.7c59,0.3,70.2,45.5,70.2,77.5v109.1h-43.2     v-98.2c0-27-8.9-47.8-39.2-47.8c-30.7,0.3-41.2,20.8-41.2,46.1v99.9H1309V359.1z"></path>			<path class="st0" d="M1518,296.2h43.2v58.7v25.7c10.2-19.1,32-27.4,53.4-27c28,0,45.5,9.6,56,25.4c10.9,15.8,14.2,37.2,14.2,61.6     v99.5h-43.2v-97.6c0-13.8-2.3-25.7-8.2-34.3c-6.3-8.6-16.2-14.2-31.3-14.2c-17.1,0-27.4,6.9-33.3,15.8c-5.9,8.9-7.6,19.8-7.6,29     v101.2H1518V296.2z"></path>			<path class="st0" d="M1913.6,540.1h-43.2v-26c-11.5,21.1-35.6,31.6-61,31.6c-58,0-92-45.2-92-96.3c0-57,41.2-95.9,92-95.9     c33,0,53.1,17.5,61,32v-26.4h43.2V540.1z M1760.6,450.5c0,22.4,16.2,55,55,55c24.1,0,39.9-12.5,48.1-29     c4.3-7.9,6.3-16.5,6.9-25.4c0.3-8.6-1.3-17.5-4.9-25.4c-7.6-17.1-24.4-32-50.4-32c-34.9,0-54.7,28.4-54.7,56.4V450.5z"></path>		</g>		<rect x="6.4" y="6.1" class="st1" width="279.9" height="279.9"></rect>		<rect x="286.4" y="6.1" class="st2" width="279.9" height="279.9"></rect>		<rect x="6.4" y="286" class="st3" width="279.9" height="279.9"></rect>		<rect x="286.4" y="286" class="st4" width="279.9" height="279.9"></rect>	</g></g><g id="HD"></g><g id="PROMO"></g></svg>