<?xml version="1.0" encoding="utf-8"?>
<!-- Generator: Adobe Illustrator 25.1.0, SVG Export Plug-In . SVG Version: 6.00 Build 0)  -->
<svg version="1.1" id="Слой_1" xmlns="http://www.w3.org/2000/svg" xmlns:xlink="http://www.w3.org/1999/xlink" x="0px" y="0px"
	 viewBox="0 0 512 161.3" style="enable-background:new 0 0 512 161.3;" xml:space="preserve">
<style type="text/css">
	.st0{fill:#EF222C;}
	.st1{fill:#FFFFFF;}
	.st2{opacity:0.99;fill:#EF222C;enable-background:new    ;}
	.st3{fill:#10253D;}
</style>
<g>
	<g>
		<g>
			<path class="st0" d="M500.8,0H11.3C5.1,0,0,5,0,11.3V150c0,6.2,5,11.3,11.3,11.3h489.4c6.2,0,11.3-5,11.3-11.3V11.3
				C512.1,5,507,0,500.8,0z M508.9,150c0,4.5-3.6,8.1-8.1,8.1H11.3c-4.5,0-8.1-3.6-8.1-8.1V11.3c0-4.5,3.6-8.1,8.1-8.1h489.5
				c4.5,0,8.1,3.6,8.1,8.1L508.9,150L508.9,150z"/>
		</g>
		<g>
			<g>
				<path class="st0" d="M147.4,7.4H14c-3.5,0-6.5,2.9-6.5,6.5v133.6c0,3.5,2.9,6.5,6.5,6.5h133.4c3.5,0,6.5-2.9,6.5-6.5V13.9
					C153.8,10.4,150.9,7.4,147.4,7.4z"/>
				<path class="st1" d="M60,58.9v8.7c0,0.8,0.3,1.4,0.9,2c0.7,0.7,1.6,1.2,2.5,1.7c2.7,1.2,5.5,2.4,8.3,3.7c2.7,1.2,5.3,2.8,7.4,5
					l0.4,0.1c3.7,0,7.4,0,11.1,0H91c0.5-0.1,0.7-0.3,0.7-0.8c0-0.6,0-1.3,0-1.9c0-0.9,0.2-1.7,0.9-2.3c0.6-0.6,1.4-0.7,2.2-0.7h39.7
					v13.7H63.3h-0.5c-1.6,0.3-2.8,1.9-2.9,3.5v8.7c0,0.8,0.3,1.4,0.9,2c0.7,0.7,1.6,1.2,2.5,1.7c2.7,1.2,5.5,2.4,8.3,3.7
					c2.7,1.2,5.3,2.8,7.4,5l0.4,0.1c3.7,0,7.4,0,11.1,0H91c0.5-0.1,0.6-0.3,0.7-0.8c0-0.6,0-1.3,0-1.9c0-0.9,0.2-1.7,0.9-2.3
					c0.6-0.6,1.4-0.7,2.2-0.7h39.7v20.9c0,4.2-3.3,8.1-7.6,8.1H35.4c-4.2,0-7.8-3.9-7.8-8.1V34.7c0-4.2,3.6-7.8,7.8-7.8H127
					c4.2,0,7.6,3.5,7.6,7.8v20.7H63.3h-0.5C61.2,55.7,60,57.3,60,58.9z"/>
			</g>
			<g>
				<g>
					<polygon id="polygon3760" class="st2" points="193.7,75.2 169.6,75.2 169.6,23.4 193.7,23.4 193.7,33 180.5,33 180.5,44 
						192.4,44 192.4,53.5 180.5,53.5 180.5,65.6 193.7,65.6 					"/>
					<polygon id="polygon3762" class="st2" points="235.6,75.2 212.6,75.2 212.6,23.4 223.5,23.4 223.5,65.6 235.6,65.6 					"/>
					<polygon id="polygon3764" class="st2" points="277.7,75.2 253.6,75.2 253.6,23.4 277.7,23.4 277.7,33 264.6,33 264.6,44 
						276.4,44 276.4,53.5 264.6,53.5 264.6,65.6 277.7,65.6 					"/>
					<polygon id="polygon3766" class="st2" points="320.5,75.2 303.7,75.2 303.6,74.6 294.8,23.4 305.9,23.4 312,59.4 318.3,23.4 
						329.3,23.4 					"/>
					<polygon id="polygon3768" class="st2" points="371.5,75.2 347.5,75.2 347.5,23.4 371.5,23.4 371.5,33 358.4,33 358.4,44 
						370.3,44 370.3,53.5 358.4,53.5 358.4,65.6 371.5,65.6 					"/>
					<polygon id="polygon3770" class="st2" points="419.1,75.2 407.9,75.2 401.2,52.9 401.2,75.2 390.4,75.2 390.4,23.4 401.2,23.4 
						408.7,47.2 408.7,23.4 419.1,23.4 					"/>
				</g>
				<g>
					<path id="path3772" class="st0" d="M184.5,141.6h-1.3c-10.5,0-13.4-2.6-13.4-12.2v-6.6h10.9v7.2c0,2.2,0.6,2.3,2.4,2.3h1.3
						c1.8,0,2.4-0.1,2.4-2.3v-6c0-2.2-0.6-2.4-2.7-3.3c-0.4-0.1-0.7-0.3-1.2-0.5l-5.2-1.8c-4.3-1.7-8.1-3.2-8.1-10.6v-6.2
						c0-9.7,2.7-12.2,13.4-12.2h1c10.7,0,13.4,2.5,13.4,12.2v6.5h-10.9V101c0-2.2-0.6-2.2-2.4-2.2h-1c-1.9,0-2.4,0.1-2.4,2.2v4
						c0,3,0.6,3.2,4.4,4.6l0.1,0.1l4.9,1.7c4.3,1.6,7.7,2.8,7.7,10.4v7.7C197.8,139,194.9,141.6,184.5,141.6z"/>
					<path id="path3774" class="st0" d="M223.1,141.4h-10.9V89.7H227c10.1,0,13,2.5,13,11.7v12.1c0,9.2-2.7,11.7-13,11.7h-3.8
						L223.1,141.4L223.1,141.4z M223.1,115.8h3.7c1.6,0,2.1-0.1,2.1-1.8v-13c0-1.7-0.6-1.9-2.1-1.9h-3.7V115.8z"/>
					<path id="path3776" class="st0" d="M268.4,141.6h-1.8c-10.5,0-13.4-2.6-13.4-12.2v-27.8c0-9.6,2.9-12.2,13.4-12.2h1.8
						c10.5,0,13.4,2.6,13.4,12.2v27.8C281.7,139,278.8,141.6,268.4,141.6z M266.7,98.7c-1.9,0-2.5,0.2-2.5,2.4v28.8
						c0,2.2,0.6,2.4,2.5,2.4h1.6c1.9,0,2.5-0.2,2.5-2.4v-28.8c0-2.2-0.7-2.4-2.5-2.4H266.7z"/>
					<path id="path3778" class="st0" d="M327.6,141.4h-10.9v-16.8c0-2.8-1.5-2.8-2-2.8h-4v19.6h-10.9V89.8h15
						c10.2,0,12.9,2.4,12.9,11.7v7c0,4.8-1,7.3-3.5,8.4c2.5,1.3,3.5,4,3.5,8.9L327.6,141.4L327.6,141.4z M310.6,112.6h4.1
						c1.4,0,1.9,0,1.9-1.9v-9.9c0-1.7-0.5-1.7-2-1.7h-4L310.6,112.6L310.6,112.6z"/>
					<polygon id="polygon3780" class="st0" points="366.5,141.4 355.5,141.4 355.5,99.2 346.7,99.2 346.7,89.7 375.4,89.7 
						375.4,99.2 366.5,99.2 					"/>
					<path id="path3782" class="st0" d="M406.6,141.6h-1.3c-10.5,0-13.4-2.6-13.4-12.2v-6.6h10.9v7.2c0,2.2,0.6,2.3,2.4,2.3h1.3
						c1.8,0,2.4-0.1,2.4-2.3v-6c0-2.2-0.6-2.4-2.7-3.3c-0.4-0.1-0.7-0.3-1.2-0.5l-5.2-1.8c-4.3-1.7-8.1-3.2-8.1-10.6v-6.2
						c0-9.7,2.7-12.2,13.4-12.2h1c10.7,0,13.4,2.5,13.4,12.2v6.5h-10.9V101c0-2.2-0.6-2.2-2.4-2.2h-1c-1.9,0-2.4,0.1-2.4,2.2v4
						c0,3,0.6,3.2,4.4,4.6l0.1,0.1l4.9,1.7c4.3,1.6,7.7,2.8,7.7,10.4v7.7C419.9,139,417.1,141.6,406.6,141.6z"/>
				</g>
			</g>
		</g>
	</g>
	<path class="st3" d="M504.7,13.9v133.6c0,3.5-2.9,6.5-6.5,6.5h-55.4c-3.5,0-6.5-2.9-6.5-6.5V13.9c0-3.5,2.9-6.5,6.5-6.5h55.4
		C501.7,7.4,504.7,10.4,504.7,13.9z"/>
	<path class="st1" d="M459,86.3V73.8h13.5c1.3,0,2.3-0.3,3-1c0.7-0.7,1-1.9,1-3.7V56.6c0-2.2-0.4-3.6-1.2-4.2
		c-0.8-0.6-2.1-0.9-4-0.9h-2.4c-1.9,0-3.2,0.3-4,0.9c-0.8,0.6-1.2,2-1.2,4.2v7h-14.4v-5.8c0-7.7,1.3-12.8,4-15.2
		c2.7-2.4,8.1-3.7,16.4-3.7h2.7c7.3,0,12.3,1.2,15,3.7c2.7,2.5,4.1,7.5,4.1,15.2v7.7c0,5-0.6,8.4-1.9,10.4c-1.3,2-3.6,3.2-6.9,3.6
		c3.4,0.4,5.7,1.5,7,3.4c1.3,1.9,1.9,5.4,1.9,10.4v10.3c0,4.3-0.4,7.8-1.2,10.4c-0.8,2.6-2.1,4.5-4,5.7c-1.9,1.2-3.8,2-5.7,2.3
		c-1.9,0.3-4.7,0.5-8.2,0.5h-2.7c-8.3,0-13.7-1.2-16.4-3.7c-2.7-2.4-4-7.5-4-15.2v-6.1h14.4v7.3c0,2.2,0.4,3.6,1.2,4.2
		c0.8,0.6,2.1,0.9,4,0.9h2.4c1.8,0,3.1-0.3,4-0.9c0.8-0.6,1.2-2,1.2-4.2V91c0-1.8-0.3-3-1-3.7c-0.7-0.7-1.7-1-3-1H459z"/>
</g>
</svg>
