<svg width="600" height="218.58" version="1.1" viewBox="0 0 158.75 57.833326" xmlns="http://www.w3.org/2000/svg">
 <g transform="translate(-15.119 -99.506)">
  <path d="m85.44 150.14-4.6845-7.3478v7.3478h-3.596v-14.617h3.1474l4.679 7.3541v-7.3541h3.5952v14.617z"/>
  <path d="m91.741 150.14v-14.617h9.9324v3.2017h-6.3435v2.4461h5.4235v3.1954h-5.4235v2.5665h6.3435v3.2072z"/>
  <path d="m110.44 138.72v11.415h-3.5952v-11.415h-3.5897v-3.208h10.775v3.208z"/>
  <path d="m129.14 150.14h-2.942l-2.354-7.2022-2.3603 7.2022h-2.9176l-4.0257-14.617h3.7597l1.9054 7.7169 2.3611-7.7169h2.5484l2.3603 7.7169 1.9125-7.7169h3.7526z"/>
  <path d="m139.71 135.39c-1.785 7.7e-4 -3.0185 0.58145-4.0905 1.6463-1.5308 1.5371-1.4772 3.5955-1.4772 5.7921 0 2.1974-0.0536 4.2443 1.4772 5.7814 1.0711 1.0774 2.3054 1.6463 4.0905 1.6463 1.7866 0 3.0142-0.56887 4.0735-1.6463 1.5379-1.5371 1.4834-3.5839 1.4834-5.7814 0-2.1966 0.0544-4.255-1.4834-5.7921-1.0594-1.0656-2.287-1.6463-4.0735-1.6463zm2e-3 3.2096c0.64773 0 1.1675 0.28943 1.428 0.63484 0.32662 0.42975 0.53342 0.92663 0.53342 3.5955 0 2.657-0.20674 3.135-0.53342 3.5647-0.26057 0.35024-0.7803 0.65945-1.428 0.65945-0.66585 0-1.1742-0.30921-1.4465-0.65945-0.32662-0.42971-0.53341-0.90768-0.53341-3.5647 0-2.6696 0.20673-3.1658 0.53341-3.5955 0.27307-0.3447 0.78066-0.63484 1.4465-0.63484z"/>
  <path d="m147.96 135.52v14.617h3.5955v-5.4478h1.2113l2.5902 5.4478h4.1643l-3.1651-6.1011c1.1499-0.56902 2.3842-1.8218 2.3842-3.8138 0-2.3965-1.7425-4.7022-4.9866-4.7022zm3.597 3.2266h2.0337c0.98696 0 1.5618 0.71306 1.5618 1.4757 0 0.75714-0.57482 1.4772-1.5618 1.4772h-2.0337z"/>
  <path d="m169.32 135.52-4.2193 5.1748v-5.1748h-3.5582v14.617h3.5582v-4.5877l1.2356-1.4104 3.3583 5.998h4.1705v-0.0363l-5.1323-8.6677 4.9812-5.913z"/>
  <path d="m77.159 106.82v24.979h6.1436v-9.6452h9.2666v-5.4715h-9.2666v-4.3878h10.84v-5.4746z"/>
  <path d="m98.429 106.82h6.1373v24.976h-6.1373z"/>
  <path d="m111.69 109.42c-2.6334 2.6303-2.5304 6.1381-2.5304 9.8931 0 3.7502-0.1031 7.2573 2.5304 9.8845 1.8212 1.8369 4.0375 2.8144 6.9425 2.8144 2.99 0 5.2299-0.97752 7.0873-2.8751 1.9007-1.9274 2.4579-4.3122 2.4579-8.3489v-3.3717h-9.5452v5.1268h3.4378v0.27872c0 0.8437-0.24244 2.0699-0.90825 2.7381-0.55644 0.59659-1.2286 0.98065-2.5296 0.98065-1.12 0-1.9613-0.45411-2.4147-1.0538-0.56979-0.73824-0.91452-1.6127-0.91452-6.1736 0-4.5672 0.34473-5.4046 0.91452-6.1436 0.45333-0.59975 1.2955-1.0838 2.4147-1.0838 1.5796 0 2.354 0.59656 3.5464 1.7913l4.1768-4.1768c-2.2454-2.2454-4.1398-3.0931-7.7232-3.0931-3.0081 2e-3 -5.1205 0.98538-6.9425 2.8129"/>
  <path d="m145.2 106.82v9.6208h-6.5246v-9.6208h-6.1365v24.979h6.1365v-9.8868h6.5246v9.8868h6.1436v-24.979z"/>
  <path d="m154.74 106.82v5.4746h6.1374v19.504h6.1444v-19.504h6.1373v-5.4746z"/>
  <path d="m54.885 99.506v29.886l-8.3466-6.3231h-15.7v-9.6051h15.7v-13.957h-31.419v57.737h15.72v-20.222h12.8l26.947 20.319h0.02989v-57.833z"/>
 </g>
</svg>
