<?xml version="1.0" encoding="utf-8"?>
<!-- Generator: Adobe Illustrator 26.0.1, SVG Export Plug-In . SVG Version: 6.00 Build 0)  -->
<svg version="1.1" id="Слой_1" xmlns="http://www.w3.org/2000/svg" xmlns:xlink="http://www.w3.org/1999/xlink" x="0px" y="0px"
	 width="500px" height="126.3px" viewBox="0 0 500 126.3" style="enable-background:new 0 0 500 126.3;" xml:space="preserve">
<style type="text/css">
	.st0{fill:#FFFFFF;}
	.st1{fill:none;}
	.st2{fill:url(#SVGID_1_);}
</style>
<g>
	<rect width="500" height="126.3"/>
	<path class="st0" d="M4.2,4.6v117.2h491.7V4.6H4.2z M484.6,111.1h-336V15.3h336V111.1z"/>
	<path class="st0" d="M234.9,58.5c0,4.8-0.4,9.6-1.3,13.9c-0.9,4.4-2.7,8.9-5.8,13.1c-3.4,4.7-7.5,8.2-12.2,10.3
		c-4.9,2.1-10.3,3.1-16,3.1c-10.8,0-19.7-3.2-26.5-9.8c-6.7-6.7-10.1-15.5-10.1-26.2c0-11.1,3.4-20.1,10.3-26.9
		c6.9-6.7,15.9-10.1,26.9-10.1c7.2,0,13.2,1.7,18.6,4.8c5.3,3.2,9.4,8,12.5,14.5l-17,7c-1.3-3.2-3.1-5.9-5.6-7.9
		c-2.5-2-5.6-3.1-9.3-3.1c-5.5,0-9.7,2.1-12.7,6.2c-3.1,4.2-4.8,8.7-5.1,13.6v1v1v0.1v0.3c0,5.2,1.7,10,4.8,14.4
		c3.1,4.4,7.6,6.6,13.2,6.6c3.9,0,7.2-1,9.8-3.1c2.8-2,4.2-4.9,4.6-8.9h-14.6V58.5H234.9z"/>
	<path class="st0" d="M303.3,35.7c-7.7-6.5-16.5-9.9-26.4-10v0.1c-10,0-18.7,3.2-26.5,9.9c-7.6,6.6-11.4,15.2-11.4,25.5
		c0,11,3.5,20.1,10.7,27.2c7,7,16.2,10.5,27.2,10.5c11.1,0,20.1-3.5,27.3-10.5c7.2-7,10.7-16.2,10.7-27.2
		C314.9,50.9,311,42.3,303.3,35.7z M290.7,75.8c-3.8,3.9-8.4,5.9-13.8,5.9c-5.3,0-10-2-13.7-5.8c-3.9-3.9-5.8-8.9-5.8-14.6
		c0-4.8,1.8-9,5.8-12.7c3.7-3.7,8.3-5.5,13.7-5.6c5.3,0,10,1.8,13.8,5.5c3.8,3.8,5.6,8,5.6,12.8C296.3,67.1,294.5,72,290.7,75.8z"/>
	<polygon class="st0" points="337.2,81.5 358.6,81.5 358.6,96.7 319.3,96.7 319.3,28 337.2,28 	"/>
	<polygon class="st0" points="386.2,95.4 368.7,95.4 368.7,43.1 354.2,43.1 354.2,28.3 400.7,28.3 400.7,43.1 386.2,43.1 	"/>
	<polygon class="st0" points="435.7,68.9 452,28.3 471,28.3 442.3,95.4 428.8,95.4 400.5,28.3 419.5,28.3 	"/>
	<rect class="st1" width="500" height="126.3"/>
	<path d="M35.2,102.6c0,0-11.7-10.5-11.7-38.1c0-27.6,11.1-34.9,11.1-34.9S45.2,19.7,81.9,19c36.9-0.6,39.1,1.3,39.1,1.3
		s4.8,16.2,4.8,46.6c0,30.2-6.5,45.6-6.5,45.6h7.2c0,0,7.6-13.9,7.6-44.3c0-36.6-9.3-50.9-9.3-50.9s-21-6.6-47.3-4.2
		C67,13.8,40.1,19.7,31.8,29.6c-8.3,9.8-14.3,19.7-13.9,36.2C18.4,90.2,35.2,102.6,35.2,102.6"/>
	<radialGradient id="SVGID_1_" cx="89.4755" cy="53.747" r="26.382" fx="98.5648" fy="44.2386" gradientUnits="userSpaceOnUse">
		<stop  offset="5.000000e-02" style="stop-color:#FFFFFF"/>
		<stop  offset="0.6" style="stop-color:#77ACDE"/>
		<stop  offset="0.7447" style="stop-color:#5B93CE"/>
		<stop  offset="0.9027" style="stop-color:#437DC1"/>
		<stop  offset="1" style="stop-color:#3A75BC"/>
	</radialGradient>
	<path class="st2" d="M63,53.9c0,14.4,11.8,26.2,26.5,26.2c14.6,0,26.4-11.8,26.4-26.2c0-14.6-11.8-26.5-26.4-26.5
		C74.8,27.4,63,39.3,63,53.9"/>
</g>
</svg>
