<?xml version="1.0" encoding="UTF-8" standalone="no"?>
<!-- Created with Inkscape (http://www.inkscape.org/) -->

<svg
   xmlns:dc="http://purl.org/dc/elements/1.1/"
   xmlns:cc="http://creativecommons.org/ns#"
   xmlns:rdf="http://www.w3.org/1999/02/22-rdf-syntax-ns#"
   xmlns:svg="http://www.w3.org/2000/svg"
   xmlns="http://www.w3.org/2000/svg"
   xmlns:xlink="http://www.w3.org/1999/xlink"
   xmlns:sodipodi="http://sodipodi.sourceforge.net/DTD/sodipodi-0.dtd"
   xmlns:inkscape="http://www.inkscape.org/namespaces/inkscape"
   width="663"
   height="350"
   id="svg2"
   sodipodi:version="0.32"
   inkscape:version="0.47 r22583"
   version="1.0"
   sodipodi:docname="MCM Top.svg"
   inkscape:output_extension="org.inkscape.output.svg.inkscape">
  <defs
     id="defs4">
    <inkscape:perspective
       sodipodi:type="inkscape:persp3d"
       inkscape:vp_x="0 : 6.5 : 1"
       inkscape:vp_y="0 : 1000 : 0"
       inkscape:vp_z="24 : 6.5 : 1"
       inkscape:persp3d-origin="12 : 4.3333333 : 1"
       id="perspective26" />
  </defs>
  <sodipodi:namedview
     id="base"
     pagecolor="#ffffff"
     bordercolor="#666666"
     borderopacity="1.0"
     gridtolerance="10000"
     guidetolerance="10"
     objecttolerance="10"
     inkscape:pageopacity="0.0"
     inkscape:pageshadow="2"
     inkscape:zoom="1.0251193"
     inkscape:cx="331.5"
     inkscape:cy="174.61382"
     inkscape:document-units="px"
     inkscape:current-layer="layer1"
     width="24px"
     height="13px"
     inkscape:window-width="784"
     inkscape:window-height="575"
     inkscape:window-x="-17"
     inkscape:window-y="99"
     showgrid="false"
     inkscape:window-maximized="0" />
  <metadata
     id="metadata7">
    <rdf:RDF>
      <cc:Work
         rdf:about="">
        <dc:format>image/svg+xml</dc:format>
        <dc:type
           rdf:resource="http://purl.org/dc/dcmitype/StillImage" />
      </cc:Work>
    </rdf:RDF>
  </metadata>
  <g
     inkscape:label="Layer 1"
     inkscape:groupmode="layer"
     id="layer1"
     transform="translate(-2.360328,-707.5738)">
    <text
       id="text65160"
       x="-45.989502"
       y="224.64862">
      <tspan
         style="font-size:10.1637001px;letter-spacing:0;fill:#000000;fill-rule:nonzero;stroke:none;font-family:font4"
         font-size="10.1637"
         letter-spacing="0"
         y="514.68164"
         x="534.98651"
         id="tspan65162">
        <altGlyph
           xlink:href="#id63"
           id="altGlyph65164" />
      </tspan>
    </text>
    <path
       style="fill:#ffffff;fill-rule:nonzero;stroke:none"
       d="m 9.2475488,882.80346 612.8772712,0 38.67658,-145.8554 -23.3084,-20.34861 -182.11292,-1.76449 -24.01989,20.23477 -27.12199,-23.36533 -88.59471,0 -38.70504,25.81285 -28.34575,-22.68229 -169.192262,0 -25.898227,17.21805 -44.2546622,150.75045"
       id="path68350" />
    <path
       style="fill:#be0013;fill-rule:nonzero;stroke:none"
       d="m 652.3489,752.2024 -33.80999,125.2222 -62.3265,0 c 0,0 28.14653,-109.96786 28.71572,-112.67152 0.45536,-2.47598 -0.93916,-6.31803 -4.69583,-6.91568 -0.28459,0 -3.98434,0 -4.24048,0 -4.43969,0 -5.77729,4.35432 -5.77729,4.35432 l -29.08571,115.31825 -61.84268,0 c 0,0 29.37029,-109.96785 29.82565,-112.67151 0.59765,-2.47599 -0.82533,-6.31803 -4.582,-6.91568 -0.31305,0 -3.95588,0 -4.35432,0 -4.41123,0 -5.63499,4.35432 -5.63499,4.35432 l -30.33793,115.31825 -61.47271,0 c 0,0 32.9562,-123.99843 35.11913,-131.6256 2.16293,-7.51333 11.78227,-25.41441 35.68833,-25.41441 23.90605,0 145.5708,0 145.5708,0 17.98646,0 32.67161,9.98931 33.98075,23.08072 0.19922,2.61829 0.11384,5.43579 -0.73995,8.7371 z m -298.19958,125.2222 -74.19415,0 c -13.17679,0 -23.64992,-7.99715 -24.67447,-19.09639 -0.28459,-3.30131 0.19922,-6.9726 1.22377,-10.24545 l 26.55279,-98.49864 c 2.04909,-7.82639 10.0747,-17.61649 18.75487,-22.90997 6.85876,-4.12664 15.1405,-6.28957 23.90606,-6.28957 l 69.66907,0 c 17.21806,0 25.98361,6.77338 27.40659,20.9178 0.2846,2.8175 0.2846,5.635 -0.2846,8.08252 l -10.35929,38.70504 -60.07819,0 c 0,0 5.26502,-23.08072 5.46424,-24.10527 0.48381,-2.44752 -0.85379,-6.14727 -4.41124,-6.77338 -0.39843,0 -7.54179,0 -7.91176,0 -4.4397,0 -5.74884,4.24048 -5.74884,4.24048 l -17.04729,63.83486 0,0.28459 c -0.5692,2.44753 0.82532,6.20419 4.43969,6.85876 0.34152,0 7.51333,0 7.88331,0 4.43969,0 5.74884,-4.32585 5.74884,-4.32585 l 5.91959,-18.75487 61.58655,0 -12.0384,39.27423 c -4.61046,17.21805 -21.65775,28.88648 -41.80714,28.88648 z m -182.39751,0 c 0,0 29.39875,-110.9924 29.93949,-113.72453 0.48381,-2.5329 -0.93917,-6.31802 -4.61046,-6.88722 -0.36997,0 -4.04126,0 -4.32586,0 -4.41123,0 -5.74883,4.32586 -5.74883,4.32586 l -30.30947,116.37126 -61.956523,0 c 0,0 29.484133,-110.9924 30.024863,-113.72452 0.48382,-2.5329 -0.93916,-6.31803 -4.58199,-6.88722 -0.31306,0 -4.06972,0 -4.35432,0 -4.43969,0 -5.72037,4.32586 -5.72037,4.32586 l -30.337927,116.37126 -61.501174,0 c 32.956205,-123.99843 32.956205,-123.99843 35.119134,-131.6256 2.191388,-7.51333 11.668432,-25.41441 35.602947,-25.41441 23.93451,0 145.68464,0 145.68464,0 17.87262,0 32.64315,9.98931 33.89537,23.08072 0.2846,2.61829 0.0854,5.43579 -0.65457,8.7371 l -33.83845,125.22219 -62.3265,0 z M 665.15572,742.32692 c -1.87834,-19.40944 -21.65775,-33.98075 -46.04762,-33.98075 l -145.5708,0 c -20.83242,0 -33.89537,10.44467 -41.15257,21.08856 -3.92742,-10.35929 -13.74598,-21.08856 -36.99747,-21.08856 l -69.66907,0 c -11.01386,0 -21.48699,2.70366 -30.22409,7.99715 -6.60262,3.95588 -12.80681,9.87547 -17.33189,16.27888 -6.4034,-14.40055 -23.4507,-24.27603 -43.48625,-24.27603 l -145.68464,0 c -29.654893,0 -43.685471,21.45853 -47.356758,34.17997 -2.162929,7.59871 -39.274234,147.0507 -39.274234,147.0507 l 616.178582,0 c 5.54962,0 10.35929,-3.67129 11.78227,-8.93631 l 33.78153,-125.30757 c 0.11384,0 0.11384,-0.2846 0.11384,-0.39844 1.02455,-4.32586 1.42298,-8.56634 0.93917,-12.6076"
       id="path68352" />
    <path
       style="fill:#be0013;fill-rule:nonzero;stroke:none"
       d="m 614.12767,912.54373 c 0,0 0,0 -0.11384,0 -4.04126,-4.04126 -10.64388,-5.15119 -24.10527,-5.15119 l -85.37877,0 -25.44287,98.10026 44.3685,32.017 29.17108,-113.75299 8.48096,23.25148 -11.58306,46.98679 27.69118,0 c 10.0747,0 22.02773,-6.77339 28.06116,-16.47811 1.39452,-2.16293 1.96371,-4.1551 2.5329,-5.91959 l 10.0747,-41.35179 c 1.50836,-6.11881 1.50836,-11.86764 -3.75667,-17.5311"
       id="path68354" />
    <path
       style="fill:#be0013;fill-rule:nonzero;stroke:none"
       d="m 405.37658,1002.9598 -12.92065,-11.29841 21.08855,-68.84375 10.47313,19.49482 -18.64103,60.64734 z m 77.86544,-75.78784 c -1.39452,-13.29063 -9.7901,-19.69404 -25.98361,-19.69404 l -61.87115,0.48382 c -8.36711,0 -16.27888,1.76449 -22.71075,5.63499 -8.08252,4.7243 -15.59585,14.03058 -17.58802,21.77159 l -20.34861,73.79568 c -0.17076,0.4839 -0.2846,1.0246 -0.36998,1.6222 l 34.74916,26.5244 54.13014,0.2846 c 19.03947,0 35.1476,-11.0993 39.38808,-27.6058 l 19.95017,-74.84876 c 0.65457,-2.2483 0.65457,-4.86659 0.36997,-7.59871 l 0.2846,-0.28459"
       id="path68356" />
    <path
       style="fill:#be0013;fill-rule:nonzero;stroke:none"
       d="m 234.9321,907.64868 -7.71255,27.52042 29.37029,0 -23.82067,86.8871 49.17817,35.5176 2.04909,-7.371 35.48911,-131.79639 8.93631,16.76269 17.44573,0 7.51333,-27.52042 -118.44881,0"
       id="path68358" />
    <text
       id="text69410"
       x="-45.989502"
       y="224.64862">
      <tspan
         style="font-size:6.77580023px;letter-spacing:0.0447203;fill:#000000;fill-rule:nonzero;stroke:none;font-family:font6"
         font-size="6.7758"
         letter-spacing=".0447203"
         y="700.37762"
         x="-33.153"
         id="tspan69412" />
    </text>
    <text
       id="text69420"
       x="-45.989502"
       y="224.64862">
      <tspan
         style="font-size:6.77580023px;letter-spacing:0.0447203;fill:#000000;fill-rule:nonzero;stroke:none;font-family:font6"
         font-size="6.7758"
         letter-spacing=".0447203"
         y="700.37762"
         x="-6.3739977"
         id="tspan69422" />
      <tspan
         style="font-size:6.77580023px;letter-spacing:0.0447203;fill:#ffffff;fill-rule:nonzero;stroke:none;font-family:font6"
         font-size="6.7758"
         letter-spacing=".0447203"
         y="700.37762"
         x="-2.8967006"
         id="tspan69424" />
    </text>
  </g>
</svg>
