<?xml version="1.0" encoding="UTF-8" standalone="no"?>
<!-- Created with Inkscape (http://www.inkscape.org/) -->

<svg
   xmlns:dc="http://purl.org/dc/elements/1.1/"
   xmlns:cc="http://creativecommons.org/ns#"
   xmlns:rdf="http://www.w3.org/1999/02/22-rdf-syntax-ns#"
   xmlns:svg="http://www.w3.org/2000/svg"
   xmlns="http://www.w3.org/2000/svg"
   xmlns:xlink="http://www.w3.org/1999/xlink"
   xmlns:sodipodi="http://sodipodi.sourceforge.net/DTD/sodipodi-0.dtd"
   xmlns:inkscape="http://www.inkscape.org/namespaces/inkscape"
   id="svg2"
   version="1.1"
   inkscape:version="0.91 r13725"
   xml:space="preserve"
   width="970"
   height="300"
   viewBox="0 0 970 300"
   sodipodi:docname="Logo RMC Sport 1 2018.svg"><metadata
     id="metadata8"><rdf:RDF><cc:Work
         rdf:about=""><dc:format>image/svg+xml</dc:format><dc:type
           rdf:resource="http://purl.org/dc/dcmitype/StillImage" /><dc:title></dc:title></cc:Work></rdf:RDF></metadata><defs
     id="defs6"><linearGradient
       inkscape:collect="always"
       id="linearGradient4936"><stop
         style="stop-color:#46548d;stop-opacity:1"
         offset="0"
         id="stop4938" /><stop
         id="stop4948"
         offset="0.25029373"
         style="stop-color:#2b4588;stop-opacity:1" /><stop
         id="stop4946"
         offset="0.56078023"
         style="stop-color:#7a8eb9;stop-opacity:1" /><stop
         id="stop4944"
         offset="0.79052728"
         style="stop-color:#c0c7db;stop-opacity:1" /><stop
         style="stop-color:#ffffff;stop-opacity:1"
         offset="1"
         id="stop4940" /></linearGradient><linearGradient
       inkscape:collect="always"
       xlink:href="#linearGradient4936"
       id="linearGradient4942"
       x1="-1078.3824"
       y1="287.91776"
       x2="-1428.7659"
       y2="291.90631"
       gradientUnits="userSpaceOnUse"
       gradientTransform="matrix(0.63871252,0,0,0.63808573,927.31226,-145.86077)" /></defs><sodipodi:namedview
     pagecolor="#ffffff"
     bordercolor="#666666"
     borderopacity="1"
     objecttolerance="10"
     gridtolerance="10"
     guidetolerance="10"
     inkscape:pageopacity="0"
     inkscape:pageshadow="2"
     inkscape:window-width="1280"
     inkscape:window-height="691"
     id="namedview4"
     showgrid="false"
     inkscape:zoom="0.29137329"
     inkscape:cx="833.63349"
     inkscape:cy="166.71169"
     inkscape:window-x="0"
     inkscape:window-y="1"
     inkscape:window-maximized="1"
     inkscape:current-layer="g10" /><g
     id="g10"
     inkscape:groupmode="layer"
     inkscape:label="Logo BFM Sport"
     transform="matrix(1.25,0,0,-1.25,-17.7165,317.71651)"><g
       id="g4167"><g
         transform="matrix(0.63871252,0,0,0.63808573,186.28004,-93.395453)"
         id="g4890"><path
           d="M 26.167921,455.81676 C 25.705859,427.58236 2.9675652,426.39073 2.9675652,426.39073 l -20.5009442,0 5.496097,62.76743 15.7101058,0 c 7.0768332,0 22.5923722,-6.24999 22.4950972,-33.3414 m 69.674044,15.92897 c 0,66.73143 -48.905588,66.73143 -54.571922,66.73143 -3.964006,0 -114.469704,0.2432 -114.469704,0.2432 l -27.869599,-239.5425 73.759619,0 4.328794,73.80827 c 0,0 1.094359,9.55738 8.511665,9.55738 5.8122548,0 8.7548456,-6.22567 8.7548456,-6.22567 l 16.9260554,-76.72657 69.868578,0 -26.021356,92.94736 c 0,0 40.783024,14.34824 40.783024,79.2071"
           style="fill:#c31e27;fill-opacity:1;fill-rule:nonzero;stroke:none"
           id="path2388"
           inkscape:connector-curvature="0" /><path
           d="m 141.46204,536.7797 59.07093,0 35.01941,-115.15063 58.21978,114.68856 62.69446,0 -22.44646,-236.72148 -63.78883,0 6.51749,89.98042 -41.73146,-89.98042 -21.52234,0 -27.3346,84.09522 -8.85212,-84.09522 -63.08359,0 27.23733,237.18355 z"
           style="fill:#c31e27;fill-opacity:1;fill-rule:nonzero;stroke:none"
           id="path2390"
           inkscape:connector-curvature="0" /><path
           d="m 531.0238,451.80656 11.35698,0 29.7665,46.54663 c 0,0 1.14301,7.0282 -5.98247,13.22956 -6.32297,7.6848 -24.00289,33.12252 -72.56801,33.12252 -48.07874,0 -101.9454,-40.58847 -112.11075,-111.89188 -11.08948,-62.18378 10.28696,-122.83545 66.48824,-137.71869 59.41141,-13.7889 101.26446,24.75678 105.61757,40.39391 3.28306,6.37159 3.28306,7.51458 0,9.3142 -2.0428,4.10991 -18.55542,38.13224 -18.55542,38.13224 l -12.01361,0 c 0,0 -2.4319,0 -5.86089,-3.81809 -2.79668,-2.79668 -13.9348,-14.5671 -20.35502,-16.14783 -8.2928,-7.27141 -52.6264,-6.32297 -49.87834,49.80538 4.96107,63.05925 49.22171,63.05925 49.22171,63.05925 0,0 14.76167,4.06128 34.87351,-24.0272"
           style="fill:#c31e27;fill-opacity:1;fill-rule:nonzero;stroke:none"
           id="path2392"
           inkscape:connector-curvature="0" /></g><g
         transform="matrix(0.63871252,0,0,0.63808573,927.31226,-145.86077)"
         style="fill:#284481;fill-opacity:1"
         id="g4919"><path
           d="m -877.88661,324.1836 19.14013,0 6.21197,3.75075 6.22666,12.67146 -2.4427,3.92814 -19.14501,0 -9.99105,-20.35035 z m 26.44372,-27.33653 -39.88586,0 -9.16866,-18.69461 8.40013,0 -13.43726,-27.34921 -55.41822,0 13.43233,27.34921 8.39522,0 32.59695,66.38149 -8.39521,0 13.43725,27.345 86.85991,0 12.7813,-19.4 -17.89675,-36.44309 -31.70113,-19.18879 z"
           style="fill:#284481;fill-opacity:1;fill-rule:nonzero;stroke:none"
           id="path138"
           inkscape:connector-curvature="0" /><path
           d="m -726.69655,340.55935 -2.63361,3.97461 -20.21706,0 -6.53016,-3.97461 -28.71017,-58.42806 2.6385,-3.97461 20.22195,0 6.53504,3.97461 28.69551,58.42806 z m -62.16379,11.90271 32.04379,19.42112 61.62532,0 12.97219,-19.42112 -40.39983,-82.23348 -32.0389,-19.42533 -61.63512,0 -12.97219,19.42533 40.40474,82.23348 z"
           style="fill:#284481;fill-opacity:1;fill-rule:nonzero;stroke:none"
           id="path140"
           inkscape:connector-curvature="0" /><path
           d="m -638.94721,327.19097 19.13033,0 6.30498,3.92816 4.66021,9.47402 -2.4378,3.94082 -19.14013,0 -8.51759,-17.343 z m -24.08914,-49.03851 8.39522,0 -13.43724,-27.34921 -55.41824,0 13.43235,27.34921 8.40501,0 32.59205,66.38151 -8.405,0 13.43235,27.34498 86.88439,0 12.7666,-19.4211 -15.25824,-31.01549 -13.16801,-7.98723 5.42874,-7.78028 -13.52046,-27.52239 8.50781,0 -13.43725,-27.34921 -47.11114,0 22.10171,45.02588 -2.40353,3.99574 -19.14011,0 -10.64701,-21.67241 z"
           style="fill:#284481;fill-opacity:1;fill-rule:nonzero;stroke:none"
           id="path142"
           inkscape:connector-curvature="0" /><path
           d="m -444.67525,337.18875 -31.49064,0 3.51474,7.15937 -8.73788,0.18585 -32.58716,-66.3815 8.80641,0 -13.42746,-27.34922 -55.8441,0 13.42745,27.34922 8.40012,0 32.60183,66.3815 -8.39032,0 -3.60285,-7.34522 -31.49553,0 17.04009,34.69021 118.8205,0 -17.0352,-34.69021 z"
           style="fill:#284481;fill-opacity:1;fill-rule:nonzero;stroke:none"
           id="path144"
           inkscape:connector-curvature="0" /><path
           d="m -993.7283,312.81049 -44.5766,-0.38259 -11.0708,25.26133 24.2892,47.14981 37.39338,25.88221 66.67625,0.57725 10.9067,-25.51639 -16.22843,-31.49698 -41.49814,-0.3591 8.25156,16.0153 -2.04478,5.16838 -22.23304,-0.19801 -7.58777,-5.22543 -8.30876,-16.12941 2.33845,-4.94689 44.31354,0.38595 10.91435,-25.48284 -23.90779,-46.4081 -37.30942,-25.71777 -66.6724,-0.58396 -10.9983,25.3486 15.8394,30.7452 41.6278,0.37252 -7.771,-15.09236 2.2318,-5.17174 22.2177,0.19801 7.31318,5.03414 7.93878,15.41119 -2.04486,5.16168 z"
           style="fill:#284481;fill-opacity:1;fill-rule:nonzero;stroke:none"
           id="path146"
           inkscape:connector-curvature="0" /></g><path
         sodipodi:nodetypes="ccccc"
         inkscape:connector-curvature="0"
         id="path4926"
         d="m 238.14905,49.857116 -11.6047,-18.935718 -212.371149,0 0,18.935718 z"
         style="fill:url(#linearGradient4942);fill-opacity:1;fill-rule:evenodd;stroke:none;stroke-width:0.80000001px;stroke-linecap:butt;stroke-linejoin:miter;stroke-opacity:1" /><path
         inkscape:connector-curvature="0"
         id="rect4665"
         d="m 747.12445,254.17321 -33.48325,-7.80069 0,-28.53644 33.48325,0 0,-203.662872 43.04875,0 0,240.000002 -43.04875,0 z"
         style="opacity:1;fill:#284481;fill-opacity:1;fill-rule:nonzero;stroke:none;stroke-width:14.39999962;stroke-linecap:round;stroke-linejoin:round;stroke-miterlimit:4;stroke-dasharray:none;stroke-dashoffset:8.40254879;stroke-opacity:1" /></g></g></svg>