<svg width="352" height="72" viewBox="0 0 352 72" fill="none" xmlns="http://www.w3.org/2000/svg">
<g clip-path="url(#clip0_6824_241383)">
<path d="M193.438 45.8633C198.536 45.8833 202.74 41.758 202.793 36.6844C202.847 31.5794 198.635 27.3254 193.511 27.3111C188.374 27.2968 184.146 31.5021 184.163 36.6115C184.179 41.6965 188.337 45.8447 193.438 45.8633Z" fill="#FDEA00"/>
<path d="M122.699 36.6585C122.66 47.8685 113.553 56.8728 102.305 56.8227C91.1796 56.7727 82.1293 47.6139 82.1937 36.4711C82.2581 25.3441 91.4299 16.2754 102.548 16.3427C113.717 16.4113 122.736 25.5043 122.699 36.6585ZM102.415 45.8631C107.513 45.8831 111.717 41.7579 111.77 36.6843C111.825 31.5792 107.612 27.3252 102.488 27.3109C97.3518 27.2966 93.1235 31.5019 93.1406 36.6113C93.1564 41.6963 97.3146 45.8445 102.415 45.8631Z" fill="#FDEA00"/>
<path d="M179.127 45.8645C173.707 45.7601 169.779 41.7965 169.739 36.3796C169.722 34.0881 169.735 31.7966 169.735 29.5052C169.735 28.8057 169.735 28.1062 169.735 27.2795H180.704V16.2926H169.706V9.08203H158.793V9.68709C158.801 18.9646 158.648 28.2464 158.866 37.5196C159.08 46.524 165.482 54.095 174.256 56.2463C176.376 56.7656 178.529 56.9658 180.742 56.7527V45.8674C180.16 45.8674 179.643 45.876 179.127 45.8674V45.8645Z" fill="white"/>
<path d="M263.474 16.2598L254.55 38.91L245.489 16.2598H233.427L249.364 56.6469H259.735L275.482 16.2598H263.474Z" fill="white"/>
<path d="M58.5945 16.3427C47.5474 16.2754 38.4271 25.2268 38.2454 36.2551L38.2397 36.2523V36.4182C38.2397 36.4354 38.2383 36.454 38.2383 36.4711C38.2383 36.4997 38.2397 36.5269 38.2397 36.5555V64.2951H49.2238V54.5756C51.9659 55.9945 55.0656 56.8084 58.3499 56.8227C69.5986 56.8742 78.7061 47.8685 78.7447 36.6585C78.7819 25.5043 69.7631 16.4113 58.5945 16.3427ZM58.4629 45.8631C53.362 45.8431 49.2052 41.6964 49.1881 36.6113C49.1709 31.5034 53.4006 27.2966 58.5358 27.3109C63.6596 27.3252 67.8721 31.5792 67.8178 36.6843C67.7634 41.7579 63.5594 45.8817 58.4629 45.8631Z" fill="white"/>
<path d="M146.11 16.4199C134.992 16.3527 125.82 25.4213 125.755 36.5484L125.717 56.6811H136.712L136.705 36.6871C136.689 31.5792 140.918 27.3724 146.053 27.3867H155.196V16.4185H146.11V16.4199Z" fill="white"/>
<path d="M21.1608 31.9668C20.6973 31.818 20.2539 31.6736 19.8291 31.5334C18.3372 30.9712 17.3359 30.525 16.582 30.0844C15.9341 29.7053 15.5464 29.0631 15.5679 28.4094C15.5893 27.7943 15.8954 27.3137 16.5062 26.939C19.4228 25.151 28.1812 26.5313 33.5925 28.9315V18.3566C30.4856 17.3825 25.9698 16.3026 21.198 16.2911C16.4161 16.2783 12.5926 17.3425 9.81476 19.4509C6.57488 21.9097 5 24.8535 5 28.4495C5 35.7416 12.358 39.0472 18.7677 41.1127C19.2312 41.2615 19.6746 41.4059 20.0994 41.5461C21.105 41.9252 22.3809 42.4315 23.3465 42.9965C23.9944 43.3756 24.3821 44.0178 24.3606 44.6715C24.3392 45.2866 24.0331 45.7672 23.4223 46.142C20.4341 47.9729 11.3138 46.4795 5.94407 43.9721L5.67229 43.8448V54.5112L5.80389 54.5541C8.91361 55.5668 13.6797 56.7769 18.7305 56.7898H18.8092C23.5481 56.7898 27.3516 55.727 30.1137 53.6301C33.3536 51.1698 34.9285 48.2275 34.9285 44.6315C34.9285 37.3393 27.5705 34.0337 21.1608 31.9682V31.9668Z" fill="white"/>
<path d="M228.28 45.8645C222.86 45.7601 218.932 41.7965 218.892 36.3796C218.875 34.0881 218.888 31.7966 218.888 29.5052C218.888 28.8057 218.888 28.1062 218.888 27.2795H229.858V16.2926H218.859V9.08203H207.947V9.68709C207.952 18.9646 207.801 28.2464 208.02 37.5196C208.233 46.524 214.635 54.095 223.409 56.2463C225.529 56.7656 227.682 56.9658 229.895 56.7527V45.8674C229.313 45.8674 228.796 45.876 228.28 45.8674V45.8645Z" fill="white"/>
<path d="M315.07 4C297.397 4 283.07 18.3268 283.07 35.9993C283.07 53.6718 297.397 67.9986 315.07 68C332.744 68 347.07 53.6732 347.07 36.0007C347.07 18.3282 332.743 4.00143 315.07 4Z" fill="#FDEA00"/>
<path d="M328.443 23.3262L314.544 56.6615H304.853L318.918 24.379H301.696V16.2944H328.442V23.3277L328.443 23.3262Z" fill="black"/>
</g>
<defs>
<clipPath id="clip0_6824_241383">
<rect width="342.07" height="64" fill="white" transform="translate(5 4)"/>
</clipPath>
</defs>
</svg>
