<?xml version="1.0" encoding="UTF-8" standalone="no"?>
<!-- Created with Inkscape (http://www.inkscape.org/) -->

<svg
   xmlns:dc="http://purl.org/dc/elements/1.1/"
   xmlns:cc="http://creativecommons.org/ns#"
   xmlns:rdf="http://www.w3.org/1999/02/22-rdf-syntax-ns#"
   xmlns:svg="http://www.w3.org/2000/svg"
   xmlns="http://www.w3.org/2000/svg"
   version="1.1"
   width="533.49603"
   height="103.93134"
   viewBox="0 0 426.79683 83.145068"
   id="svg2">
  <metadata
     id="metadata20">
    <rdf:RDF>
      <cc:Work
         rdf:about="">
        <dc:format>image/svg+xml</dc:format>
        <dc:type
           rdf:resource="http://purl.org/dc/dcmitype/StillImage" />
        <dc:title></dc:title>
      </cc:Work>
    </rdf:RDF>
  </metadata>
  <defs
     id="defs18" />
  <g
     transform="translate(-1.0272,-23.310934)"
     id="g3790"
     style="display:inline">
    <path
       d="m 422.10208,105.656 c 2.72677,0 4.92197,-2.46361 4.92197,-5.5238 l 0,-70.497468 c 0,-3.060184 -2.1952,-5.523798 -4.92197,-5.523798 -145.40919,0 -283.7103,0 -415.3529081,0 -2.7267724,0 -4.9219719,2.463614 -4.9219719,5.523798 l 0,70.497468 c 0,3.06019 2.1951995,5.5238 4.9219719,5.5238"
       id="path3792"
       style="fill:#ffffff;fill-opacity:1;fill-rule:nonzero;stroke:none" />
  </g>
  <g
     transform="translate(-1.0272,-23.310934)"
     id="layer4"
     style="display:inline">
    <path
       d="m 11.983085,29.468482 c -2.6580558,0 -4.7979349,2.139879 -4.7979349,4.797935 l 0,61.233647 c 0,2.658056 2.1398791,4.797936 4.7979349,4.797936 l 22.210442,0 6.217324,0 0.259888,0 0,-8.896172 C 27.090222,90.384263 16.381192,79.033895 16.381192,65.193107 c 0,-13.840787 10.70903,-25.171164 24.289547,-26.188729 l 0,-9.535896 -0.259888,0 -6.217324,0 -22.210442,0 z m 32.665942,0 0,9.535896 c 13.580517,1.017565 24.289547,12.347942 24.289547,26.188729 0,13.840788 -10.70903,25.191156 -24.289547,26.208721 l 0,8.896172 0.03998,0 6.477212,0 365.702621,0 c 2.65805,0 4.79793,-2.13988 4.79793,-4.797936 l 0,-61.233647 c 0,-2.658056 -2.13988,-4.797935 -4.79793,-4.797935 l -365.702621,0 -6.477212,0 -0.03998,0 z m 33.365641,5.357694 338.034522,0 0,60.034164 -338.034522,0 0,-60.034164 z"
       id="rect3721"
       style="fill:#00386b;fill-opacity:1;fill-rule:nonzero;stroke:none" />
  </g>
  <g
     transform="translate(-1.0272,-23.310934)"
     id="layer6"
     style="display:inline">
    <path
       d="m 40.641771,42.796748 c -11.579753,1.010405 -20.671104,10.708349 -20.671104,22.550296 0,11.841947 9.091351,21.559879 20.671104,22.570286 l 0,-16.812764 c -2.383032,-0.824575 -4.098236,-3.094058 -4.098236,-5.757522 0,-2.663465 1.715204,-4.912956 4.098236,-5.737531 l 0,-16.812765 z m 3.978288,0 0,16.812765 c 2.383032,0.824575 4.098236,3.074066 4.098236,5.737531 0,2.663464 -1.715204,4.932947 -4.098236,5.757522 l 0,16.812764 c 11.579752,-1.010407 20.671104,-10.728339 20.671104,-22.570286 0,-11.841947 -9.091352,-21.539891 -20.671104,-22.550296 z"
       id="path3761"
       style="fill:#01b3c1;fill-opacity:1;fill-rule:nonzero;stroke:none" />
  </g>
  <g
     transform="translate(-1.0272,-23.310934)"
     id="layer13"
     style="display:inline">
    <g
       transform="matrix(0.79965586,0,0,0.79965586,0.36606882,21.167561)"
       id="g3924">
      <path
         d="m 134.29172,37.598736 c 2.3596,0 16.13995,0 17.93174,0 0,1.014143 0,5.676026 0,6.864688 -1.12383,0 -15.33343,0 -17.93174,0 -5.47842,0 -5.17696,6.132705 0,6.132705 2.5124,0 5.39707,0 6.5008,0 17.49775,0 17.40054,21.161434 0,21.161434 -1.34156,0 -18.21521,0 -19.28426,0 0,-1.265632 0,-6.11385 0,-7.161334 0.83783,0 17.46397,0 19.28426,0 5.73457,0 5.66823,-7.400275 0,-7.400275 -1.00769,0 -4.57488,0.178415 -6.5008,0 -17.53907,0 -17.53907,-19.597218 0,-19.597218 z"
         id="path3901"
         style="fill:#00386b;fill-opacity:1;stroke:#01386a;stroke-width:0.09375;display:inline" />
      <path
         d="m 262.39006,37.598736 c 0,1.355033 0,5.758134 0,7.230868 -1.31007,0 -5.58883,0 -7.85679,0 -4.97786,0 -5.54389,4.606711 -5.54389,7.377516 0,1.07374 0,17.940615 0,19.580378 -0.96653,0 -8.13405,0 -9.39244,0 0,-1.034982 0,-16.442544 0,-19.232056 0,-3.138003 0.43223,-7.190245 2.66714,-10.410593 1.79259,-2.582996 5.13086,-4.546113 7.98797,-4.546113 1.53276,0 5.68754,0 12.13801,0 z"
         id="path3907"
         style="fill:#00386b;fill-opacity:1;stroke:#01386a;stroke-width:0.09375;display:inline" />
      <path
         d="m 273.66127,25.064598 c 3.12034,0 6.32684,0 9.14632,0 0,4 0,8.863577 0.0603,12.562392 3.22035,-0.02825 6.22671,-0.02825 9.32671,-0.02825 0.0267,2.299998 0.0267,4.830866 -10e-6,7.230866 -3.2,0 -6.28701,0 -9.38701,0 0,5.259308 0,10.536348 0,16.09652 0,4.440695 4.14112,3.482416 9.38701,3.482416 0,2.360172 0,5.259479 0,7.37896 -4.6,0 -7.22515,0 -9.387,0 -8.49179,0 -9.14632,-7.37896 -9.14632,-10.882506 0,-5.679654 -10e-6,-10.395734 -10e-6,-16.07539 -2.28658,0 -3.3697,0 -6.13766,0 0,-2.721209 0,-5.09104 0,-7.230866 2.2264,0 4.45887,0 6.13766,0 0.1,-4 0,-8.424238 0,-12.534138 l 10e-6,0 z"
         id="path3897-1"
         style="fill:#00386b;fill-opacity:1;stroke:#01b3c1;stroke-width:0.09375;display:inline" />
      <path
         d="m 169.67824,84.321636 c 0.004,-2.83707 0.004,-11.0376 0,-12.53414 3.13693,0 5.62457,0 7.69244,0 11.45802,0 16.65262,-7.23087 16.65262,-17.15389 0,-9.65591 -5.30026,-17.03487 -16.65162,-17.03487 -2.68483,0 -14.27741,0 -17.16178,0 0,2.51021 0,42.06894 0.0237,46.7229 1.70958,0 7.3753,0 9.44448,0 l -3e-5,0 1.9e-4,0 z m -0.0262,-19.76501 0.0306,-19.57893 c 2.08649,0 4.34787,0 7.68804,0 9.51208,0 9.51208,19.57893 0,19.57893 -2.94216,0 -5.52245,0 -7.71859,0 l -5e-5,0 z"
         id="path3891-7"
         style="fill:#00386b;fill-opacity:1;stroke:none;display:inline" />
      <path
         d="m 216.2,36.908868 c -9.56667,0.471064 -17.175,8.164937 -17.175,17.575001 0,9.713613 8.10033,17.6 18.1,17.6 9.99967,0 18.125,-7.886387 18.125,-17.6 0,-9.713614 -8.12533,-17.575001 -18.125,-17.575001 -0.31249,0 -0.6164,-0.01519 -0.925,0 z m 0.9,7.55 c 4.65159,0 8.425,4.51548 8.425,10.075001 0,5.55952 -3.77341,10.05 -8.425,10.05 -4.65159,0 -8.425,-4.49048 -8.425,-10.05 0,-5.559521 3.77341,-10.075001 8.425,-10.075001 z"
         id="path3833"
         style="fill:#00386b;fill-opacity:1;fill-rule:nonzero;stroke:none;display:inline" />
      <path
         d="m 322.4289,25.064598 c -0.004,2.837065 -0.004,11.037596 0,12.534138 -3.13693,0 -5.62457,0 -7.69244,0 -11.45802,0 -16.65262,7.230868 -16.65262,17.153894 0,9.655908 5.30026,17.034868 16.65162,17.034868 2.68483,0 14.27741,0 17.16178,0 0,-2.510212 0,-42.068945 -0.0237,-46.7229 -1.70958,0 -7.3753,0 -9.44448,0 l 3e-5,0 -1.9e-4,0 z m 0.0262,19.765006 -0.0306,19.578934 c -2.08649,0 -4.34787,0 -7.68804,0 -9.51208,0 -9.51208,-19.578934 0,-19.578934 2.94216,0 5.52245,0 7.71859,0 l 5e-5,0 z"
         id="path3891"
         style="fill:#01b3c1;stroke:none" />
      <path
         d="m 423.25777,25.064598 c 3.12034,0 6.32684,0 9.14632,0 0,4 0,8.863577 0.0603,12.562392 3.22035,-0.02825 6.22671,-0.02825 9.32671,-0.02825 0.0267,2.3 0.0267,4.830868 -10e-6,7.230868 -3.2,0 -6.28701,0 -9.38701,0 0,5.259308 0,10.536347 0,16.09652 0,4.440693 4.14112,3.482414 9.38701,3.482414 0,2.360173 0,5.259479 0,7.37896 -4.6,0 -7.22515,0 -9.387,0 -8.49179,0 -9.14632,-7.37896 -9.14632,-10.882506 0,-5.679654 -10e-6,-10.395734 -10e-6,-16.075388 -2.28658,0 -3.3697,0 -6.13766,0 0,-2.721211 0,-5.091042 0,-7.230868 2.2264,0 4.45887,0 6.13766,0 0.1,-4 0,-8.424238 0,-12.534138 l 10e-6,0 z"
         id="path3897"
         style="fill:#01b3c1;stroke:#01b3c1;stroke-width:0.09375" />
      <path
         d="m 391.32526,37.598736 c -5.97576,0 -9.0934,0 -17.5852,0 -11.68272,0 -16.53794,7.774862 -16.53794,16.544061 0,9.67601 4.50768,17.644701 16.53794,17.644701 1.29924,0 5.99671,0 8.37845,0 0,2.119749 0,3.757681 -3.34351,3.757681 -6.01975,0 -11.8,0 -17.7,0 l 0,7.005306 c 6.37962,0 12.5,0 18.8,0 3.6,-0.1 7.8,-1.216613 9.7,-4.516613 2.4,-4.2 1.7043,-9.085508 1.7043,-13.625334 0,-9.142186 0.046,-17.72988 0.046,-26.809802 l -4e-5,0 z m -9.20675,7.230868 c 0,6.380251 0,13.078934 0,19.578934 -1.63785,0 -6.85473,0 -8.37845,0 -10.3853,0 -10.3853,-19.578934 0,-19.578934 1.75985,0 3.83066,-0.0071 8.37845,0 z"
         id="path3911"
         style="fill:#01b3c1;stroke:#01b3c1;stroke-width:0.09375" />
      <path
         d="m 448.47034,37.598736 c -0.1,2.3 0.1,4.930868 -1e-5,7.230868 6.77999,0 12.76103,0 18.9174,0 3,0.3 4.35636,3.166525 4.65636,5.766525 -5.61818,0 -10.47612,0 -15.96339,0 -12.698,0 -12.698,21.191369 0,21.191369 7.5309,0 17.72381,0 25.12381,0 0,-6.656364 0,-13.884533 0,-20.584533 0.0295,-9.080909 -5.30482,-13.604229 -13.82216,-13.604229 -6.29373,0 -12.44374,0.03361 -18.91201,0 z m 23.5374,19.597218 c 0,2.287271 0,5.05622 0,7.212584 -3.03095,0 -6.8871,0 -11.17075,0 -6.37081,0 -6.39107,-7.212584 -0.0202,-7.212584 1.35718,0 6.41376,0 11.19097,0 l -2e-5,0 z"
         id="path3915"
         style="fill:#01b3c1;stroke:#01b3c1;stroke-width:0.09375" />
      <rect
         width="9.7169123"
         height="46.7229"
         x="487.61639"
         y="25.064598"
         id="rect2858"
         style="fill:#01b3c1;fill-opacity:1;fill-rule:nonzero;stroke:none" />
      <g
         transform="translate(0,-3.8411302)"
         id="g3860">
        <rect
           width="12.10985"
           height="42.735954"
           x="425.42401"
           y="51.799831"
           transform="scale(0.8,0.8)"
           id="rect2882"
           style="fill:#01b3c1;fill-opacity:1;fill-rule:nonzero;stroke:none" />
        <rect
           width="12.10985"
           height="11.079471"
           x="425.42401"
           y="36.13216"
           transform="scale(0.8,0.8)"
           id="rect2884"
           style="fill:#01b3c1;fill-opacity:1;fill-rule:nonzero;stroke:none" />
      </g>
      <g
         transform="translate(0,-3.8411302)"
         id="g3864">
        <rect
           width="9.6878796"
           height="34.188763"
           x="399.87039"
           y="41.439865"
           id="rect2882-1"
           style="fill:#01b3c1;fill-opacity:1;fill-rule:nonzero;stroke:none" />
        <rect
           width="9.6878796"
           height="8.8635769"
           x="399.87039"
           y="28.905727"
           id="rect2884-7"
           style="fill:#01b3c1;fill-opacity:1;fill-rule:nonzero;stroke:none" />
      </g>
    </g>
  </g>
</svg>
