<svg xmlns="http://www.w3.org/2000/svg" width="994.945" height="131.222"><defs><linearGradient id="a" x1="129.559" x2="144.997" y1="15.006" y2="15.006" gradientUnits="userSpaceOnUse"><stop offset="0%" stop-color="#43C4DC"/><stop offset="6.591%" stop-color="#3EBCD8"/><stop offset="27.03%" stop-color="#29ADD0"/><stop offset="40.5%" stop-color="#20A8CE"/><stop offset="53.08%" stop-color="#24A4CD"/><stop offset="71.41%" stop-color="#2C9ACA"/><stop offset="93.18%" stop-color="#3789C5"/><stop offset="100%" stop-color="#3983C4"/></linearGradient><linearGradient id="f" x1="81.908" x2="1.599" y1="8.625" y2="19.252" gradientTransform="scale(.96653 1.03463)" gradientUnits="userSpaceOnUse"><stop offset="0%" stop-color="#43C4DC"/><stop offset="6.591%" stop-color="#3EBCD8"/><stop offset="27.03%" stop-color="#29ADD0"/><stop offset="40.5%" stop-color="#20A8CE"/><stop offset="53.08%" stop-color="#24A4CD"/><stop offset="71.41%" stop-color="#2C9ACA"/><stop offset="93.18%" stop-color="#3789C5"/><stop offset="100%" stop-color="#3983C4"/></linearGradient><linearGradient id="g" x1="82.21" x2=".564" y1="4.098" y2="14.55" gradientTransform="scale(.9507 1.05185)" gradientUnits="userSpaceOnUse"><stop offset="0%" stop-color="#43C4DC"/><stop offset="6.591%" stop-color="#3EBCD8"/><stop offset="27.03%" stop-color="#29ADD0"/><stop offset="40.5%" stop-color="#20A8CE"/><stop offset="53.08%" stop-color="#24A4CD"/><stop offset="71.41%" stop-color="#2C9ACA"/><stop offset="93.18%" stop-color="#3789C5"/><stop offset="100%" stop-color="#3983C4"/></linearGradient><linearGradient id="h" x1="84.425" x2="2.776" y1="11.071" y2="21.524" gradientTransform="scale(.9507 1.05185)" gradientUnits="userSpaceOnUse"><stop offset="0%" stop-color="#43C4DC"/><stop offset="6.591%" stop-color="#3EBCD8"/><stop offset="27.03%" stop-color="#29ADD0"/><stop offset="40.5%" stop-color="#20A8CE"/><stop offset="53.08%" stop-color="#24A4CD"/><stop offset="71.41%" stop-color="#2C9ACA"/><stop offset="93.18%" stop-color="#3789C5"/><stop offset="100%" stop-color="#3983C4"/></linearGradient><linearGradient id="i" x1="30.507" x2="43.757" y1="36.143" y2="10.7" gradientTransform="scale(.96653 1.03463)" gradientUnits="userSpaceOnUse"><stop offset="0%" stop-color="#0F76B1"/><stop offset="26.24%" stop-color="#0F7AB1" stop-opacity=".738"/><stop offset="66%" stop-color="#0E85B0" stop-opacity=".34"/><stop offset="100%" stop-color="#0D91AE" stop-opacity="0"/></linearGradient><linearGradient id="j" x1="3.121" x2="16.591" y1="23.451" y2="-1.574" gradientTransform="scale(.9507 1.05185)" gradientUnits="userSpaceOnUse"><stop offset="0%" stop-color="#0F76B1"/><stop offset="26.24%" stop-color="#0F7AB1" stop-opacity=".738"/><stop offset="66%" stop-color="#0E85B0" stop-opacity=".34"/><stop offset="100%" stop-color="#0D91AE" stop-opacity="0"/></linearGradient><linearGradient id="k" x1="49.174" x2="62.645" y1="43.208" y2="18.181" gradientTransform="scale(.9507 1.05185)" gradientUnits="userSpaceOnUse"><stop offset="0%" stop-color="#0F76B1"/><stop offset="26.24%" stop-color="#0F7AB1" stop-opacity=".738"/><stop offset="66%" stop-color="#0E85B0" stop-opacity=".34"/><stop offset="100%" stop-color="#0D91AE" stop-opacity="0"/></linearGradient><linearGradient id="l" x1="48.169" x2="41.36" y1="33.071" y2="17.6" gradientTransform="scale(.96653 1.03463)" gradientUnits="userSpaceOnUse"><stop offset="6.085%" stop-color="#0D91AE"/><stop offset="100%" stop-color="#0D91AE" stop-opacity="0"/></linearGradient><linearGradient id="m" x1="29.826" x2="22.904" y1="39.504" y2="24.286" gradientTransform="scale(.9507 1.05185)" gradientUnits="userSpaceOnUse"><stop offset="6.085%" stop-color="#0D91AE"/><stop offset="100%" stop-color="#0D91AE" stop-opacity="0"/></linearGradient><linearGradient id="n" x1="78.481" x2="71.558" y1="21.843" y2="6.624" gradientTransform="scale(.9507 1.05185)" gradientUnits="userSpaceOnUse"><stop offset="6.085%" stop-color="#0D91AE"/><stop offset="100%" stop-color="#0D91AE" stop-opacity="0"/></linearGradient><radialGradient id="b" cx="140.845" cy="12.149" r="12.597" fx="140.845" fy="12.149" gradientUnits="userSpaceOnUse"><stop offset="0%" stop-color="#0D91AE" stop-opacity="0"/><stop offset="81.39%" stop-color="#0D91AE" stop-opacity=".867"/><stop offset="93.92%" stop-color="#0D91AE"/></radialGradient><radialGradient id="c" cx="132.828" cy="10.38" r="14.195" fx="132.828" fy="10.38" gradientUnits="userSpaceOnUse"><stop offset="1.871%" stop-color="#0D91AE" stop-opacity="0"/><stop offset="32.48%" stop-color="#0D90AE" stop-opacity=".312"/><stop offset="57.39%" stop-color="#0D8AAF" stop-opacity=".566"/><stop offset="80.24%" stop-color="#0E81B0" stop-opacity=".799"/><stop offset="100%" stop-color="#0F76B1"/></radialGradient><radialGradient id="d" cx="153.183" cy="14.804" r="17.754" fx="153.183" fy="14.804" gradientTransform="scale(.91324 1.095)" gradientUnits="userSpaceOnUse"><stop offset="0%" stop-color="#FFF"/><stop offset="17.18%" stop-color="#F7F7F6"/><stop offset="34.77%" stop-color="#E8E7E6"/><stop offset="52.54%" stop-color="#D2D0D0"/><stop offset="70.46%" stop-color="#B7B5B5"/><stop offset="88.3%" stop-color="#979696"/><stop offset="100%" stop-color="#828282"/></radialGradient><radialGradient id="e" cx="141.566" cy="5.807" r="27.14" fx="141.566" fy="5.807" gradientTransform="scale(.91323 1.09501)" gradientUnits="userSpaceOnUse"><stop offset="0%" stop-color="#FFF"/><stop offset="17.18%" stop-color="#F7F7F6"/><stop offset="34.77%" stop-color="#E8E7E6"/><stop offset="52.54%" stop-color="#D2D0D0"/><stop offset="70.46%" stop-color="#B7B5B5"/><stop offset="88.3%" stop-color="#979696"/><stop offset="100%" stop-color="#828282"/></radialGradient></defs><g fill="none" fill-rule="evenodd" transform="scale(4.37408)"><path fill="#eaeaea" d="M119.714.893c-1.214 0-2.285.821-2.643 1.964l-5.25 17.607L104.893.893h-2.929a2.04 2.04 0 0 0-1.928 1.357L93.57 20.607l-5.464-18.25C87.857 1.5 87.036.893 86.18.893h-4.11l8.822 28.178h2.536A2.743 2.743 0 0 0 96 27.286l6.679-17.643 7.357 19.428h3.071c.822 0 1.536-.535 1.786-1.321L123.32.857h-3.607v.036zm67.179 0h-3.679c-.964 0-1.714.786-1.714 1.714v26.464h15.679c1.535 0 2.75-1.25 2.75-2.75V24h-13.072V.893Zm-14.679 19.178c3.786-1.75 5.857-5.107 5.857-9.464 0-4.678-3.214-9.714-10.285-9.714h-11.857c-.965 0-1.715.786-1.715 1.714v26.464h2.607c1.536 0 2.75-1.25 2.75-2.75v-5.607h6.143l6.929 8.357h6.428l-7.392-9zm-4.178-4.428h-8.465V6H168c1.821 0 2.929.893 3.536 1.643.714.857 1.107 2.071 1.107 3.178.036 1.965-1.607 4.822-4.607 4.822zM212 .893h-8.143c-.964 0-1.714.786-1.714 1.714v26.464H212c10.679 0 15.464-7.107 15.464-14.142C227.464 7.964 222.68.893 212 .893ZM212.607 24H207.5V5.964h5.107c2.964 0 5.429 1 7.143 2.929 1.464 1.607 2.286 3.821 2.286 6.071.035 4.357-3.607 9.036-9.429 9.036z"/><circle cx="137.286" cy="15" r="7.714" fill="url(#a)"/><circle cx="137.286" cy="15" r="7.714" fill="url(#b)"/><circle cx="137.286" cy="15" r="7.714" fill="url(#c)"/><path fill="url(#d)" d="M142.393.821 141.214.5C134.857-1.214 128 5.75 127.43 13.893a9.934 9.934 0 0 1 2.785-5.857 9.815 9.815 0 0 1 7.036-2.929c2.821 0 5.321 1.179 7.143 3.036a9.844 9.844 0 0 1 2.75 6.857c0 .357-.036.75-.072 1.107-.571 8.143-7.428 15.107-13.785 13.393l-1.179-.321c1.572.535 3.322.821 5.143.821 8.571 0 15-6.464 15-15 .036-6.714-3.964-12.143-9.857-14.179z"/><path fill="url(#e)" d="M137.286 24.893c-3.643 0-6.822-1.929-8.536-4.893a9.887 9.887 0 0 1-1.357-5c0-.357.036-.75.071-1.107C128.036 5.75 134.893-1.214 141.25.5l1.179.321C140.857.286 139.107 0 137.286 0c-8.572 0-15 6.464-15 15 0 6.75 4 12.179 9.857 14.179l1.178.321c6.358 1.714 13.215-5.25 13.786-13.393a9.874 9.874 0 0 1-9.821 8.786z"/><path fill="url(#f)" d="M41.643.179h-12.5a1.982 1.982 0 0 0-1.964 1.964v26.25H32a2.622 2.622 0 0 0 2.607-2.607v-4.357h6l4.857 6.928h8.072l-5.822-8.25.679-.428c2.714-1.715 4.571-5.286 4.571-8.929C52.964 3.5 47.071.179 41.643.179zm.071 14.428h-7.143V6.93h7.143c2.5 0 3.822 1.928 3.822 3.821 0 1.5-1.036 3.857-3.822 3.857z" transform="translate(0 .714)"/><path fill="url(#g)" d="M9.036 28.393h4.821a2.622 2.622 0 0 0 2.607-2.607V7.036h6.822c1.214 0 2.214-1 2.214-2.215V.18H1.429A1.43 1.43 0 0 0 0 1.607V7h9.036z" transform="translate(0 .714)"/><path fill="url(#h)" d="M62.929 28.393h4.821a2.622 2.622 0 0 0 2.607-2.607V7h6.822c1.214 0 2.214-1 2.214-2.214V.179H55.32c-.785 0-1.428.642-1.428 1.428V7h9.036v21.393z" transform="translate(0 .714)"/><path fill="url(#i)" d="M41.643.179h-12.5a1.982 1.982 0 0 0-1.964 1.964v26.25H32a2.622 2.622 0 0 0 2.607-2.607v-4.357h6l4.857 6.928h8.072l-5.822-8.25.679-.428c2.714-1.715 4.571-5.286 4.571-8.929C52.964 3.5 47.071.179 41.643.179zm.071 14.428h-7.143V6.93h7.143c2.5 0 3.822 1.928 3.822 3.821 0 1.5-1.036 3.857-3.822 3.857z" transform="translate(0 .714)"/><path fill="url(#j)" d="M9.036 28.393h4.821a2.622 2.622 0 0 0 2.607-2.607V7.036h6.822c1.214 0 2.214-1 2.214-2.215V.18H1.429A1.43 1.43 0 0 0 0 1.607V7h9.036z" transform="translate(0 .714)"/><path fill="url(#k)" d="M62.929 28.393h4.821a2.622 2.622 0 0 0 2.607-2.607V7h6.822c1.214 0 2.214-1 2.214-2.214V.179H55.32c-.785 0-1.428.642-1.428 1.428V7h9.036v21.393z" transform="translate(0 .714)"/><g><path fill="url(#l)" d="M41.643.179h-12.5a1.982 1.982 0 0 0-1.964 1.964v26.25H32a2.622 2.622 0 0 0 2.607-2.607v-4.357h6l4.857 6.928h8.072l-5.822-8.25.679-.428c2.714-1.715 4.571-5.286 4.571-8.929C52.964 3.5 47.071.179 41.643.179zm.071 14.428h-7.143V6.93h7.143c2.5 0 3.822 1.928 3.822 3.821 0 1.5-1.036 3.857-3.822 3.857z" transform="translate(0 .714)"/><path fill="url(#m)" d="M9.036 28.393h4.821a2.622 2.622 0 0 0 2.607-2.607V7.036h6.822c1.214 0 2.214-1 2.214-2.215V.18H1.429A1.43 1.43 0 0 0 0 1.607V7h9.036z" transform="translate(0 .714)"/><path fill="url(#n)" d="M62.929 28.393h4.821a2.622 2.622 0 0 0 2.607-2.607V7h6.822c1.214 0 2.214-1 2.214-2.214V.179H55.32c-.785 0-1.428.642-1.428 1.428V7h9.036v21.393z" transform="translate(0 .714)"/></g></g></svg>